<svg viewBox="0 0 1024 1024" version="1.1" xmlns="http://www.w3.org/2000/svg"><path d="M725.333333 810.666667h128V213.333333h-128V128h170.666667a42.666667 42.666667 0 0 1 42.666667 42.666667v682.666666a42.666667 42.666667 0 0 1-42.666667 42.666667h-170.666667v-85.333333zM121.984 122.752l536.32-76.586667a21.333333 21.333333 0 0 1 24.362667 21.12v889.429334a21.333333 21.333333 0 0 1-24.32 21.12L121.941333 901.248a42.666667 42.666667 0 0 1-36.650666-42.24V164.992a42.666667 42.666667 0 0 1 36.650666-42.24zM170.666667 202.026667v619.946666l426.666666 60.970667V141.056L170.666667 202.026667zM469.333333 341.333333h85.333334v341.333334h-85.333334l-85.333333-85.333334-85.333333 85.333334H213.333333V341.333333h85.333334l0.426666 213.333334L384 469.333333l85.333333 84.864V341.333333z"></path></svg>