<?xml version="1.0" ?><svg id="Layer_1" style="enable-background:new 0 0 91 91;" version="1.1" viewBox="0 0 91 91" xml:space="preserve" xmlns="http://www.w3.org/2000/svg" xmlns:xlink="http://www.w3.org/1999/xlink"><style type="text/css">
	.st0{fill:#4E7A9E;}
</style><g><g><g><path class="st0" d="M71.9,24.8c-5.7-0.5-11.6,0-17.2,1.2c-3.1,0.6-2.2,5.1,0.7,5.2c5.5,0.4,11,0.6,16.5,0.7     C76.5,31.9,76.4,25.2,71.9,24.8z"/><path class="st0" d="M33.5,24.2c-5.7-0.5-11.6,0-17.2,1.2c-3.1,0.6-2.2,5.1,0.7,5.2c5.5,0.4,11,0.6,16.5,0.7     C38.1,31.3,37.9,24.6,33.5,24.2z"/><path class="st0" d="M62.9,48.9c-1.3,1.1-1.4,2-1.8,3.5c-0.3,1.5-1.1,2.8-1.9,4.1c-1.7,2.7-3.9,5.1-6.6,6.9     c-5.3,3.5-11.7,4.1-17.8,5.1c-0.8,0.1-0.8,1.3-0.2,1.7C41.3,74,49.8,72,55.9,68c3.1-2,5.8-4.7,8-7.7c1.8-2.6,4.9-6.9,3.8-10.1     C67,48,64.6,47.5,62.9,48.9z"/></g></g></g></svg>