<svg viewBox="0 0 1024 1024" version="1.1" xmlns="http://www.w3.org/2000/svg"><path d="M783.530667 662.869333L723.2 602.453333l60.330667-60.330666a213.333333 213.333333 0 1 0-301.696-301.696L421.504 300.8 361.130667 240.469333 421.546667 180.138667a298.666667 298.666667 0 0 1 422.4 422.4l-60.373334 60.330666z m-120.661334 120.661334l-60.373333 60.330666a298.666667 298.666667 0 0 1-422.4-422.4l60.373333-60.330666L300.8 421.546667l-60.330667 60.330666a213.333333 213.333333 0 1 0 301.696 301.696l60.330667-60.330666 60.373333 60.330666z m-30.208-452.565334l60.373334 60.373334-301.696 301.653333-60.373334-60.330667 301.696-301.653333z"></path></svg>