<svg viewBox="0 0 1024 1024" version="1.1" xmlns="http://www.w3.org/2000/svg"><path d="M406.869333 554.666667H312.704a128 128 0 1 1 0.042667-85.333334h94.122666L554.666667 213.333333h135.253333a128 128 0 1 1 0.042667 85.333334h-86.058667l-123.136 213.290666L603.946667 725.333333h86.016a128 128 0 1 1 0 85.333334H554.666667l-147.797334-256zM810.666667 725.333333a42.666667 42.666667 0 1 0 0 85.333334 42.666667 42.666667 0 0 0 0-85.333334zM192 469.333333a42.666667 42.666667 0 1 0 0 85.333334 42.666667 42.666667 0 0 0 0-85.333334zM810.666667 213.333333a42.666667 42.666667 0 1 0 0 85.333334 42.666667 42.666667 0 0 0 0-85.333334z"></path></svg>