<svg viewBox="0 0 1024 1024" version="1.1" xmlns="http://www.w3.org/2000/svg"><path d="M512 853.333333a341.333333 341.333333 0 1 0 0-682.666666 341.333333 341.333333 0 0 0 0 682.666666z m0 85.333334C276.352 938.666667 85.333333 747.648 85.333333 512S276.352 85.333333 512 85.333333s426.666667 191.018667 426.666667 426.666667-191.018667 426.666667-426.666667 426.666667z m-132.693333-376.746667l-106.581334-33.237333c-23.04-7.04-23.168-22.912 5.162667-34.304l415.274667-160.426667c24.106667-9.813333 37.76 2.602667 29.952 33.706667l-70.698667 333.653333c-4.949333 23.765333-19.242667 29.44-39.082667 18.474667l-108.842666-80.554667-50.730667 48.981333c-5.205333 5.034667-9.429333 9.344-17.450667 10.410667-7.978667 1.109333-14.549333-1.28-19.370666-14.506667l-37.12-122.496-0.512 0.341334z"></path></svg>