<?xml version="1.0" standalone="no"?><!DOCTYPE svg PUBLIC "-//W3C//DTD SVG 1.1//EN" "http://www.w3.org/Graphics/SVG/1.1/DTD/svg11.dtd"><svg t="1658579433809" class="icon" viewBox="0 0 1024 1024" version="1.1" xmlns="http://www.w3.org/2000/svg" p-id="25608" width="40" height="40" xmlns:xlink="http://www.w3.org/1999/xlink"><defs><style type="text/css"></style></defs><path d="M512 938.666667C276.352 938.666667 85.333333 747.648 85.333333 512S276.352 85.333333 512 85.333333s426.666667 191.018667 426.666667 426.666667-191.018667 426.666667-426.666667 426.666667z m-132.693333-376.746667l0.554666-0.298667 37.12 122.453334c4.778667 13.269333 11.349333 15.658667 19.328 14.549333 8.021333-1.066667 12.245333-5.376 17.493334-10.410667l50.688-48.981333 108.8 80.554667c19.882667 10.965333 34.176 5.290667 39.125333-18.432l70.698667-333.738667c7.808-31.061333-5.845333-43.52-29.952-33.621333l-415.274667 160.426666c-28.330667 11.349333-28.16 27.221333-5.12 34.261334l106.538667 33.28z" p-id="25609" fill="#1890ff"></path></svg>