<svg viewBox="0 0 1024 1024" version="1.1" xmlns="http://www.w3.org/2000/svg"><path d="M469.333333 640h85.333334v85.333333h-85.333334v-85.333333z m85.333334-70.186667V597.333333h-85.333334v-64a42.666667 42.666667 0 0 1 42.666667-42.666666 64 64 0 1 0-62.762667-76.544l-83.712-16.768A149.376 149.376 0 1 1 554.666667 569.813333zM640 170.666667H213.333333v682.666666h597.333334V341.333333h-170.666667V170.666667zM128 127.658667C128 104.277333 147.072 85.333333 170.624 85.333333H682.666667l213.333333 213.333334v597.034666A42.666667 42.666667 0 0 1 853.632 938.666667H170.368A42.666667 42.666667 0 0 1 128 896.341333V127.658667z"></path></svg>