<svg viewBox="0 0 1024 1024" version="1.1" xmlns="http://www.w3.org/2000/svg"><path d="M753.365333 632.661333l-60.330666-60.330666L753.365333 512A170.666667 170.666667 0 1 0 512 270.634667l-60.330667 60.330666-60.330666-60.330666 60.330666-60.330667a256 256 0 0 1 362.026667 362.026667l-60.330667 60.330666z m-120.704 120.704l-60.330666 60.330667a256 256 0 1 1-362.026667-362.026667l60.330667-60.330666 60.330666 60.330666L270.634667 512A170.666667 170.666667 0 1 0 512 753.365333l60.330667-60.330666 60.330666 60.330666z m0-422.4l60.373334 60.373334-301.696 301.653333-60.373334-60.330667 301.696-301.653333z"></path></svg>