<svg viewBox="0 0 1024 1024" version="1.1" xmlns="http://www.w3.org/2000/svg"><path d="M789.333333 426.666667l187.733334 469.333333h-91.946667l-51.242667-128h-174.506666l-51.157334 128h-91.904L704 426.666667h85.333333zM426.666667 85.333333v85.333334h256v85.333333h-83.968a777.472 777.472 0 0 1-154.453334 268.842667 634.197333 634.197333 0 0 0 99.669334 72.832l-32.042667 80.128A725.973333 725.973333 0 0 1 384 585.6a711.509333 711.509333 0 0 1-264.576 151.381333l-22.869333-82.304a627.2 627.2 0 0 0 227.285333-129.792A771.328 771.328 0 0 1 203.392 341.333333h95.573333A684.032 684.032 0 0 0 384 464.085333a689.706667 689.706667 0 0 0 124.16-208.042666L85.333333 256V170.666667h256V85.333333h85.333334z m320 464.426667L693.461333 682.666667h106.325334L746.666667 549.76z"></path></svg>